<?xml version="1.0" encoding="UTF-8"?>
<svg xmlns="http://www.w3.org/2000/svg" xmlns:xlink="http://www.w3.org/1999/xlink" width="81px" height="50px" viewBox="0 0 81 50" version="1.1">
<g id="surface1">
<path style="fill-rule:nonzero;fill:rgb(0%,0%,0%);fill-opacity:1;stroke-width:37.395302;stroke-linecap:butt;stroke-linejoin:miter;stroke:rgb(0%,0%,0%);stroke-opacity:1;stroke-miterlimit:4;" d="M 323.208333 324.243625 C 326.041667 300.64075 325.1875 297.1595 342.770833 300.988875 L 347.229167 301.371813 C 360.75 301.998438 378.4375 299.213438 388.8125 294.3745 C 411.1875 284.000375 424.4375 266.66375 402.395833 271.224188 C 352.083333 281.598313 348.625 264.575 348.625 264.575 C 401.75 185.7595 423.958333 85.743188 404.791667 61.27 C 352.520833 -5.535188 262.041667 26.03975 260.520833 26.87525 L 260.041667 26.944875 C 250.104167 24.890938 238.979167 23.6725 226.479167 23.463625 C 203.729167 23.080688 186.458333 29.416563 173.354167 39.372938 C 173.354167 39.372938 11.9375 -27.118938 19.458333 122.992563 C 21.041667 154.915625 65.229167 364.660938 117.916667 301.302188 C 137.1875 278.151875 155.791667 258.552437 155.791667 258.552437 C 165.041667 264.679438 176.104167 267.812563 187.708333 266.698563 L 188.604167 265.932688 C 188.333333 268.822125 188.4375 271.641938 188.958333 274.949125 C 175.395833 290.127375 179.375 292.773125 152.25 298.377938 C 124.791667 304.017563 140.916667 314.113188 151.4375 316.724125 C 164.208333 319.926875 193.75 324.4525 213.708333 296.532875 L 212.916667 299.700813 C 218.25 303.947938 217.875 330.335813 218.645833 349.169375 C 219.395833 368.002938 220.645833 385.548438 224.5 395.922563 C 228.333333 406.296688 232.854167 432.963063 268.520833 425.339125 C 298.333333 418.933625 321.125 409.743125 323.208333 324.208813 " transform="matrix(0.1875,0,0,0.112208,0,0)"/>
<path style=" stroke:none;fill-rule:nonzero;fill:rgb(20%,40.392157%,56.862748%);fill-opacity:1;" d="M 75.449219 30.433594 C 66.015625 31.597656 65.367188 29.6875 65.367188 29.6875 C 75.328125 20.84375 79.492188 9.621094 75.898438 6.871094 C 66.097656 -0.621094 49.132812 2.921875 48.847656 3.015625 L 48.757812 3.023438 C 46.894531 2.792969 44.808594 2.65625 42.464844 2.632812 C 38.199219 2.589844 34.960938 3.300781 32.503906 4.417969 C 32.503906 4.417969 2.238281 -3.042969 3.648438 13.800781 C 3.945312 17.382812 12.230469 40.917969 22.109375 33.808594 C 25.722656 31.210938 29.210938 29.011719 29.210938 29.011719 C 30.945312 29.699219 33.019531 30.050781 35.191406 29.925781 L 35.363281 29.839844 C 35.308594 30.164062 35.332031 30.480469 35.429688 30.851562 C 32.882812 32.554688 33.632812 32.851562 28.542969 33.480469 C 23.394531 34.113281 26.421875 35.246094 28.394531 35.539062 C 30.789062 35.898438 36.328125 36.40625 40.070312 33.273438 L 39.921875 33.628906 C 40.917969 34.105469 41.617188 36.738281 41.5 39.125 C 41.382812 41.507812 41.304688 43.148438 42.089844 44.425781 C 42.875 45.707031 43.660156 48.582031 50.347656 47.726562 C 55.9375 47.007812 58.835938 45.152344 59.238281 42.054688 C 59.523438 39.851562 60.171875 40.175781 60.210938 38.207031 L 60.730469 37.273438 C 61.328125 34.289062 60.824219 33.324219 64.269531 33.773438 L 65.105469 33.816406 C 67.640625 33.886719 70.957031 33.574219 72.902344 33.03125 C 77.097656 31.867188 79.582031 29.921875 75.449219 30.433594 Z M 75.449219 30.433594 "/>
<path style="fill:none;stroke-width:12.4651;stroke-linecap:round;stroke-linejoin:round;stroke:rgb(100%,100%,100%);stroke-opacity:1;stroke-miterlimit:4;" d="M 215.875 286.472063 C 214.479167 336.01025 216.208333 385.86175 221.0625 397.9765 C 225.916667 410.09125 236.291667 433.659313 271.958333 426.035375 C 301.770833 419.629875 312.604167 407.271438 317.3125 379.978438 C 320.791667 359.891625 327.458333 304.122 328.3125 292.7035 " transform="matrix(0.1875,0,0,0.112208,0,0)"/>
<path style="fill:none;stroke-width:12.4651;stroke-linecap:round;stroke-linejoin:round;stroke:rgb(100%,100%,100%);stroke-opacity:1;stroke-miterlimit:4;" d="M 173.104167 38.258938 C 173.104167 38.258938 11.583333 -27.745563 19.083333 122.365938 C 20.6875 154.289 64.875 364.034313 117.5625 300.675563 C 136.8125 277.52525 154.229167 259.353125 154.229167 259.353125 " transform="matrix(0.1875,0,0,0.112208,0,0)"/>
<path style="fill:none;stroke-width:12.4651;stroke-linecap:round;stroke-linejoin:round;stroke:rgb(100%,100%,100%);stroke-opacity:1;stroke-miterlimit:4;" d="M 260.354167 26.213813 C 254.75 27.954438 350.1875 -8.668313 404.4375 60.608563 C 423.604167 85.116563 401.395833 185.132875 348.291667 263.948375 " transform="matrix(0.1875,0,0,0.112208,0,0)"/>
<path style="fill:none;stroke-width:12.4651;stroke-linecap:round;stroke-linejoin:bevel;stroke:rgb(100%,100%,100%);stroke-opacity:1;stroke-miterlimit:4;" d="M 348.291667 263.948375 C 348.291667 263.948375 351.75 280.971688 402.041667 270.597563 C 424.083333 266.037125 410.8125 283.37375 388.479167 293.747875 C 370.125 302.276938 329 304.470125 328.333333 292.7035 C 326.604167 262.347 349.979167 271.572313 348.291667 263.948375 C 346.75 257.090313 336.3125 250.3715 329.395833 233.626688 C 323.354167 218.970625 246.583333 106.769938 350.666667 123.445125 C 354.479167 122.644438 323.520833 24.438375 226.125 22.837 C 128.729167 21.235625 131.9375 142.592 131.9375 142.592 " transform="matrix(0.1875,0,0,0.112208,0,0)"/>
<path style="fill:none;stroke-width:12.4651;stroke-linecap:round;stroke-linejoin:round;stroke:rgb(100%,100%,100%);stroke-opacity:1;stroke-miterlimit:4;" d="M 188.604167 274.3225 C 175.020833 289.50075 179.020833 292.1465 151.875 297.751313 C 124.416667 303.42575 140.5625 313.486563 151.083333 316.132313 C 163.854167 319.30025 193.395833 323.825875 213.354167 295.871438 C 219.4375 287.377188 213.3125 273.800313 204.958333 270.353875 C 200.9375 268.682875 195.541667 266.559313 188.604167 274.3225 Z M 188.604167 274.3225 " transform="matrix(0.1875,0,0,0.112208,0,0)"/>
<path style="fill:none;stroke-width:12.4651;stroke-linecap:round;stroke-linejoin:round;stroke:rgb(100%,100%,100%);stroke-opacity:1;stroke-miterlimit:4;" d="M 187.708333 274.078813 C 186.354167 265.166813 190.645833 254.549 195.25 242.120938 C 202.166667 223.49625 218.145833 204.871563 205.375 145.79475 C 195.854167 101.756938 131.979167 136.639063 131.9375 142.592 C 131.895833 148.57975 134.8125 172.844063 130.875 201.146625 C 125.708333 238.047875 154.354167 269.274688 187.354167 266.071938 " transform="matrix(0.1875,0,0,0.112208,0,0)"/>
<path style="fill-rule:nonzero;fill:rgb(100%,100%,100%);fill-opacity:1;stroke-width:4.155;stroke-linecap:butt;stroke-linejoin:miter;stroke:rgb(100%,100%,100%);stroke-opacity:1;stroke-miterlimit:4;" d="M 172.520833 141.686875 C 172.229167 143.740813 176.25 149.171563 181.5 149.902625 C 186.729167 150.633688 191.208333 146.386563 191.5 144.332625 C 191.770833 142.3135 187.75 140.050688 182.520833 139.319625 C 177.270833 138.588563 172.791667 139.66775 172.520833 141.686875 Z M 172.520833 141.686875 " transform="matrix(0.1875,0,0,0.112208,0,0)"/>
<path style="fill-rule:nonzero;fill:rgb(100%,100%,100%);fill-opacity:1;stroke-width:2.0775;stroke-linecap:butt;stroke-linejoin:miter;stroke:rgb(100%,100%,100%);stroke-opacity:1;stroke-miterlimit:4;" d="M 331.9375 137.544188 C 332.229167 139.598125 328.208333 145.028875 322.958333 145.759938 C 317.729167 146.491 313.25 142.243875 312.958333 140.189938 C 312.6875 138.136 316.708333 135.908 321.9375 135.176938 C 327.1875 134.445875 331.666667 135.525063 331.9375 137.544188 Z M 331.9375 137.544188 " transform="matrix(0.1875,0,0,0.112208,0,0)"/>
<path style="fill:none;stroke-width:12.4651;stroke-linecap:round;stroke-linejoin:round;stroke:rgb(100%,100%,100%);stroke-opacity:1;stroke-miterlimit:4;" d="M 350.666667 123.445125 C 351.541667 139.424063 347.229167 150.320375 346.6875 167.343688 C 345.875 192.095375 358.479167 220.43275 339.5 248.770125 " transform="matrix(0.1875,0,0,0.112208,0,0)"/>
</g>
</svg>
